<?xml version="1.0" encoding="UTF-8" standalone="no"?>
<!-- Generator: Adobe Illustrator 26.3.1, SVG Export Plug-In . SVG Version: 6.00 Build 0)  -->

<svg
   version="1.1"
   id="Слой_1"
   x="0px"
   y="0px"
   viewBox="0 0 118.2 42.7"
   enable-background="new 0 0 126.7 62.4"
   xml:space="preserve"
   sodipodi:docname="Alt_logo.svg"
   width="118.2"
   height="42.700001"
   inkscape:version="1.2.2 (732a01da63, 2022-12-09)"
   xmlns:inkscape="http://www.inkscape.org/namespaces/inkscape"
   xmlns:sodipodi="http://sodipodi.sourceforge.net/DTD/sodipodi-0.dtd"
   xmlns:xlink="http://www.w3.org/1999/xlink"
   xmlns="http://www.w3.org/2000/svg"
   xmlns:svg="http://www.w3.org/2000/svg"><defs
   id="defs96" /><sodipodi:namedview
   id="namedview94"
   pagecolor="#ffffff"
   bordercolor="#000000"
   borderopacity="0.25"
   inkscape:showpageshadow="2"
   inkscape:pageopacity="0.0"
   inkscape:pagecheckerboard="0"
   inkscape:deskcolor="#d1d1d1"
   showgrid="false"
   inkscape:zoom="10.639306"
   inkscape:cx="60.013313"
   inkscape:cy="20.772032"
   inkscape:window-width="1920"
   inkscape:window-height="1017"
   inkscape:window-x="-8"
   inkscape:window-y="-8"
   inkscape:window-maximized="1"
   inkscape:current-layer="Слой_1" />



<linearGradient
   id="SVGID_00000070106044391648325540000013964472534313824414_"
   gradientUnits="userSpaceOnUse"
   x1="85.1978"
   y1="31.7686"
   x2="121.6022"
   y2="31.7686"
   gradientTransform="translate(-3.4,-10.4)">
	<stop
   offset="0"
   style="stop-color:#00A0DD"
   id="stop72" />
	<stop
   offset="0.2"
   style="stop-color:#372485"
   id="stop74" />
	<stop
   offset="0.4"
   style="stop-color:#FF0080"
   id="stop76" />
	<stop
   offset="0.6"
   style="stop-color:#FF191B"
   id="stop78" />
	<stop
   offset="0.8"
   style="stop-color:#FFE900"
   id="stop80" />
	<stop
   offset="1"
   style="stop-color:#00943F"
   id="stop82" />
</linearGradient>



<g
   id="g5228"><g
     enable-background="new    "
     id="g52"
     transform="translate(-3.4,-10.4)">
	<path
   d="M 64.6,44.5 V 16.2 h -6.9 v -5.8 h 18.4 v 5.8 h -6.9 v 28.3 z"
   id="path50" />
</g><g
     enable-background="new    "
     id="g56"
     transform="translate(-3.4,-10.4)">
	<path
   d="M 46.6,53.1 V 10.5 h 8.7 v 35.4 h 21.6 v 7.2 z"
   id="path54" />
</g><g
     id="g70"
     transform="translate(-3.4,-10.4)">
	<defs
   id="defs59">
		<rect
   id="SVGID_1_"
   x="-5"
   y="10.4"
   width="54"
   height="43" />
	</defs>
	<clipPath
   id="SVGID_00000176028959812659843250000010241713018535066284_">
		<use
   xlink:href="#SVGID_1_"
   overflow="visible"
   id="use61" />
	</clipPath>
	<g
   clip-path="url(#SVGID_00000176028959812659843250000010241713018535066284_)"
   id="g68">
		<g
   enable-background="new    "
   id="g66">
			<path
   d="M 43.4,53 34.6,49.5 34.7,39 18.8,32.6 11.9,40.3 3.4,37 34.8,3.4 43.3,6.8 Z M 34.9,31.3 35.3,14.3 24,27 Z"
   id="path64" />
		</g>
	</g>
</g><path
     fill="url(#SVGID_00000070106044391648325540000013964472534313824414_)"
     d="m 118.2,21.4 c 0,3.6 -1,7.2 -2.8,10.4 -1.3,2.2 -2.9,4.1 -4.8,5.7 -2.8,2.3 -6.1,3.9 -9.6,4.7 -1.6,0.3 -3.2,0.5 -4.8,0.5 h -0.1 c -1.6,0 -3.2,-0.2 -4.7,-0.5 -2.6,-0.6 -5.1,-1.6 -7.4,-3.1 -1.3,-0.8 -2.2,-2.3 -2.2,-3.8 v 0 c 0,-1.3 1.1,-2.3 2.4,-2.3 0.5,0 1,0.2 1.4,0.5 0.3,0.2 0.6,0.5 1,0.7 1.4,1 3,1.8 4.7,2.3 1.5,0.4 3.1,0.7 4.7,0.7 h 0.1 c 1.6,0 3.2,-0.3 4.8,-0.7 1.7,-0.5 3.3,-1.3 4.8,-2.3 2,-1.4 3.6,-3.2 4.8,-5.3 2.6,-4.6 2.6,-10.2 0,-14.9 -1.2,-2.1 -2.8,-3.9 -4.8,-5.2999996 -1.5,-1 -3.1,-1.8 -4.8,-2.3 -1.6,-0.5 -3.2,-0.7 -4.8,-0.7 H 96 c -1.6,0 -3.2,0.2 -4.7,0.7 -1.7,0.5 -3.3,1.2 -4.8,2.2 -0.3,0.2 -0.7,0.5 -1,0.7 -1,0.7999996 -2.5,0.6 -3.3,-0.4 -0.3,-0.4 -0.5,-0.9 -0.5,-1.4 v 0 c 0,-1.6 0.8,-3 2.2,-3.8 2.3,-1.5 4.8,-2.5 7.4,-3.10000002 1.5,-0.3 3.1,-0.5 4.7,-0.5 h 0.1 c 1.6,0 3.2,0.2 4.8,0.5 3.5,0.80000002 6.8,2.40000002 9.6,4.70000002 1.9,1.6 3.5,3.5 4.8,5.6999996 1.9,3.1 2.9,6.7 2.9,10.4 z"
     id="path85"
     style="fill:url(#SVGID_00000070106044391648325540000013964472534313824414_)" /><path
     d="M 89.2,20.6 76,13.6 c -0.4,-0.2 -0.9,-0.1 -1.1,0.3 0,0 0,0 0,0 -0.1,0.1 -0.1,0.2 -0.1,0.4 v 13.8 c 0,0.4 0.4,0.8 0.8,0.8 0,0 0,0 0,0 0.1,0 0.3,0 0.4,-0.1 l 13.2,-7 c 0.3,-0.2 0.4,-0.5 0.3,-0.9 0,0 0,0 0,0 0,-0.1 -0.1,-0.2 -0.3,-0.3 z"
     id="path87" /><path
     d="m 91.6,12.1 h 3 c 0.3,0 0.5,0.2 0.5,0.4 0,0 0,0 0,0 v 17.2 c 0,0.3 -0.2,0.5 -0.5,0.5 h -3 c -0.3,0 -0.5,-0.2 -0.5,-0.5 V 12.6 c 0,-0.3 0.2,-0.5 0.5,-0.5 z"
     id="path89" /><path
     d="m 99.5,12.1 h 3 c 0.2,0 0.5,0.2 0.5,0.4 0,0 0,0 0,0 v 17.2 c 0,0.3 -0.2,0.5 -0.5,0.5 h -3 C 99.2,30.2 99,30 99,29.7 V 12.6 c 0,-0.3 0.2,-0.5 0.5,-0.5 0,0 0,0 0,0 z"
     id="path91" /></g>
</svg>
