<svg width="20" height="22" viewBox="0 0 20 22" fill="none" xmlns="http://www.w3.org/2000/svg">
<path d="M7.75 20.7499V15.4924C7.75 15.1249 8.125 14.7499 8.5 14.7499H11.5C11.875 14.7499 12.25 15.1249 12.25 15.4999V20.7499C12.25 20.9488 12.329 21.1396 12.4697 21.2802C12.6103 21.4209 12.8011 21.4999 13 21.4999H19C19.1989 21.4999 19.3897 21.4209 19.5303 21.2802C19.671 21.1396 19.75 20.9488 19.75 20.7499V10.2499C19.7502 10.1513 19.7309 10.0537 19.6933 9.96258C19.6558 9.87147 19.6006 9.78865 19.531 9.71888L17.5 7.68938V2.74988C17.5 2.55096 17.421 2.3602 17.2803 2.21955C17.1397 2.07889 16.9489 1.99988 16.75 1.99988H15.25C15.0511 1.99988 14.8603 2.07889 14.7197 2.21955C14.579 2.3602 14.5 2.55096 14.5 2.74988V4.68938L10.531 0.718876C10.4613 0.649031 10.3786 0.593617 10.2875 0.555807C10.1963 0.517997 10.0987 0.498535 10 0.498535C9.90135 0.498535 9.80367 0.517997 9.71255 0.555807C9.62143 0.593617 9.53867 0.649031 9.469 0.718876L0.469001 9.71888C0.399399 9.78865 0.344231 9.87147 0.306654 9.96258C0.269076 10.0537 0.249825 10.1513 0.250001 10.2499V20.7499C0.250001 20.9488 0.329019 21.1396 0.469671 21.2802C0.610323 21.4209 0.801089 21.4999 1 21.4999H7C7.19891 21.4999 7.38968 21.4209 7.53033 21.2802C7.67098 21.1396 7.75 20.9488 7.75 20.7499Z" fill="black"/>
</svg>
