<svg width="32" height="32" viewBox="0 0 32 32" fill="none" xmlns="http://www.w3.org/2000/svg">
<path d="M16 0C7.164 0 0 7.164 0 16C0 24.836 7.164 32 16 32C24.836 32 32 24.836 32 16C32 7.164 24.836 0 16 0ZM24.4813 21.2893L21.9907 21.324C21.9907 21.324 21.4533 21.4293 20.7507 20.944C19.8187 20.304 18.94 18.6387 18.2547 18.8547C17.56 19.076 17.5813 20.5747 17.5813 20.5747C17.5813 20.5747 17.5867 20.8387 17.428 21.0107C17.256 21.196 16.9187 21.1773 16.9187 21.1773H15.8027C15.8027 21.1773 13.3413 21.3813 11.172 19.12C8.80933 16.6547 6.72133 11.7893 6.72133 11.7893C6.72133 11.7893 6.59867 11.4827 6.72933 11.3253C6.87733 11.152 7.276 11.1467 7.276 11.1467L9.94267 11.1333C9.94267 11.1333 10.1933 11.1773 10.3747 11.3107C10.5227 11.42 10.6067 11.6253 10.6067 11.6253C10.6067 11.6253 11.0373 12.7173 11.6093 13.7067C12.724 15.6347 13.2413 16.0573 13.62 15.8507C14.172 15.5493 14.0067 13.1253 14.0067 13.1253C14.0067 13.1253 14.0173 12.2453 13.7293 11.8533C13.5053 11.548 13.084 11.4573 12.9 11.4347C12.7493 11.4147 12.9947 11.0653 13.3147 10.908C13.7947 10.6733 14.6427 10.66 15.644 10.6693C16.424 10.6773 16.6493 10.7253 16.9533 10.8C17.8733 11.0227 17.5613 11.8813 17.5613 13.9413C17.5613 14.6013 17.4427 15.5293 17.9173 15.8347C18.1227 15.9667 18.6227 15.8547 19.8693 13.7293C20.4627 12.7213 20.9067 11.5373 20.9067 11.5373C20.9067 11.5373 21.004 11.3267 21.1547 11.236C21.3093 11.1427 21.5173 11.172 21.5173 11.172L24.324 11.1547C24.324 11.1547 25.1667 11.0533 25.304 11.436C25.448 11.836 24.9893 12.7707 23.8427 14.3C21.96 16.812 21.7507 16.5787 23.3147 18.032C24.808 19.42 25.116 20.0947 25.168 20.18C25.7853 21.208 24.4813 21.2893 24.4813 21.2893Z" fill="black"/>
</svg>
