<svg width="280" height="80" viewBox="0 0 280 80" fill="none" xmlns="http://www.w3.org/2000/svg">
<path d="M144.975 63.8876V10.8665H128.629V0H172.217V10.8665H155.871V63.8876H144.975Z" fill="black"/>
<path d="M102.334 79.9999V0.187256H122.944V66.5104H174.111V79.9999H102.334Z" fill="black"/>
<path d="M94.7547 79.8125L73.9086 73.2551L74.1455 53.583L36.4805 41.5924L20.1354 56.0186L0 49.8359L74.3824 -13.1149L94.5178 -6.74485L94.7547 79.8125ZM74.6193 39.1568L75.5668 7.30667L48.7986 31.1006L74.6193 39.1568Z" fill="black"/>
<path d="M280 40.0936C280 46.8383 277.631 53.583 273.367 59.5784C270.288 63.7001 266.498 67.2599 261.997 70.2575C255.364 74.5667 247.547 77.5643 239.256 79.0631C235.466 79.6252 231.675 79.9999 227.885 79.9999H227.648C223.858 79.9999 220.068 79.6252 216.515 79.0631C210.356 77.939 204.433 76.0655 198.985 73.2552C195.905 71.7563 193.774 68.946 193.774 66.1357C193.774 63.7001 196.379 61.8266 199.459 61.8266C200.643 61.8266 201.828 62.2013 202.775 62.7634C203.486 63.1381 204.197 63.7001 205.144 64.0748C208.46 65.9484 212.251 67.4472 216.278 68.384C219.831 69.1334 223.621 69.6954 227.411 69.6954H227.648C231.438 69.6954 235.229 69.1334 239.019 68.384C243.046 67.4472 246.836 65.9484 250.389 64.0748C255.127 61.4519 258.917 58.0795 261.76 54.1451C267.919 45.5268 267.919 35.035 261.76 26.2294C258.917 22.295 255.127 18.9226 250.389 16.2997C246.836 14.4261 243.046 12.9273 239.019 11.9905C235.229 11.0538 231.438 10.6791 227.648 10.6791H227.411C223.621 10.6791 219.831 11.0538 216.278 11.9905C212.251 12.9273 208.46 14.2388 204.907 16.1123C204.197 16.487 203.249 17.0491 202.538 17.4238C200.169 18.9226 196.616 18.5479 194.721 16.6744C194.01 15.925 193.537 14.9882 193.537 14.0514C193.537 11.0538 195.432 8.43082 198.748 6.93199C204.197 4.12168 210.119 2.24815 216.278 1.12402C219.831 0.561963 223.621 0.187256 227.411 0.187256H227.648C231.438 0.187256 235.229 0.561963 239.019 1.12402C247.31 2.62285 255.127 5.62051 261.76 9.92964C266.261 12.9273 270.051 16.487 273.131 20.6088C277.631 26.4168 280 33.1615 280 40.0936Z" fill="url(#paint0_linear_702_140)"/>
<path d="M211.303 38.5947L180.034 25.48C179.086 25.1052 177.902 25.2926 177.428 26.042C177.191 26.2294 177.191 26.4167 177.191 26.7914V52.6462C177.191 53.3956 178.138 54.1451 179.086 54.1451C179.323 54.1451 179.797 54.1451 180.034 53.9577L211.303 40.843C212.013 40.4682 212.25 39.9062 212.013 39.1568C212.013 38.9694 211.776 38.7821 211.303 38.5947Z" fill="black"/>
<path d="M216.988 22.6699H224.095C224.805 22.6699 225.279 23.0446 225.279 23.4193V55.6442C225.279 56.2062 224.805 56.5809 224.095 56.5809H216.988C216.277 56.5809 215.804 56.2062 215.804 55.6442V23.6067C215.804 23.0446 216.277 22.6699 216.988 22.6699Z" fill="black"/>
<path d="M235.702 22.6699H242.809C243.283 22.6699 243.994 23.0446 243.994 23.4193V55.6442C243.994 56.2062 243.52 56.5809 242.809 56.5809H235.702C234.992 56.5809 234.518 56.2062 234.518 55.6442V23.6067C234.518 23.0446 234.992 22.6699 235.702 22.6699Z" fill="black"/>
<defs>
<linearGradient id="paint0_linear_702_140" x1="193.768" y1="40.0347" x2="280.005" y2="40.0347" gradientUnits="userSpaceOnUse">
<stop stop-color="#00A0DD"/>
<stop offset="0.2" stop-color="#372485"/>
<stop offset="0.4" stop-color="#FF0080"/>
<stop offset="0.6" stop-color="#FF191B"/>
<stop offset="0.8" stop-color="#FFE900"/>
<stop offset="1" stop-color="#00943F"/>
</linearGradient>
</defs>
</svg>
